<svg id="Layer_1" data-name="Layer 1" xmlns="http://www.w3.org/2000/svg" xmlns:xlink="http://www.w3.org/1999/xlink" width="780" height="619" viewBox="0 0 780 619">
  <metadata><?xpacket begin="﻿" id="W5M0MpCehiHzreSzNTczkc9d"?>
<x:xmpmeta xmlns:x="adobe:ns:meta/" x:xmptk="Adobe XMP Core 5.6-c138 79.159824, 2016/09/14-01:09:01        ">
   <rdf:RDF xmlns:rdf="http://www.w3.org/1999/02/22-rdf-syntax-ns#">
      <rdf:Description rdf:about=""/>
   </rdf:RDF>
</x:xmpmeta>
                                                                                                    
                                                                                                    
                                                                                                    
                                                                                                    
                                                                                                    
                                                                                                    
                                                                                                    
                                                                                                    
                                                                                                    
                                                                                                    
                                                                                                    
                                                                                                    
                                                                                                    
                                                                                                    
                                                                                                    
                                                                                                    
                                                                                                    
                                                                                                    
                                                                                                    
                                                                                                    
                           
<?xpacket end="w"?></metadata>
<defs>
    <style>
      .cls-1 {
        fill: #150b00;
        filter: url(#filter);
      }

      .cls-1, .cls-2, .cls-3 {
        fill-rule: evenodd;
      }

      .cls-2, .cls-3 {
        fill: #c4c5c5;
      }

      .cls-2 {
        filter: url(#filter-2);
      }

      .cls-3 {
        filter: url(#filter-3);
      }
    </style>
    <filter id="filter" x="220" y="19" width="344" height="431" filterUnits="userSpaceOnUse">
      <feFlood result="flood" flood-color="#fff"/>
      <feComposite result="composite" operator="in" in2="SourceGraphic"/>
      <feBlend result="blend" in2="SourceGraphic"/>
    </filter>
    <filter id="filter-2" x="8.063" y="492.094" width="763.813" height="74.906" filterUnits="userSpaceOnUse">
      <feFlood result="flood" flood-color="#fff"/>
      <feComposite result="composite" operator="in" in2="SourceGraphic"/>
      <feBlend result="blend" in2="SourceGraphic"/>
    </filter>
    <filter id="filter-3" x="10.375" y="590.875" width="756.875" height="28.031" filterUnits="userSpaceOnUse">
      <feFlood result="flood" flood-color="#fff"/>
      <feComposite result="composite" operator="in" in2="SourceGraphic"/>
      <feBlend result="blend" in2="SourceGraphic"/>
    </filter>
  </defs>
  <path class="cls-1" d="M440.227,415.119V390.2l8.552-26.577C508.647,304.3,555.686,248.776,564,231.691l-10.215,3.56s9.5-11.864,8.552-18.51c-7.6-116.273-73.17-176.862-91.226-191.732,26.607,31.955,19.326,42.4,19.326,42.4C478.714,45.576,454.64,24.377,449.888,19l-5.7,33.853c22.806,13.289,16.79,20.882,16.79,20.882C455.591,66.141,441.021,59.5,441.021,59.5l-1.586,9.491c6.973,3.165,38.327,22.149,38.565,70.872,0,59.323-33.735,74.985-39.674,77.357-19.718-11.865-41.1-11.627-46.326-12.1-5.226.474-26.608,0.236-46.324,12.1C339.735,214.844,306,199.182,306,139.859c0.238-48.723,31.6-67.707,38.564-70.872L342.983,59.5s-14.574,6.644-19.955,14.238c0,0-6.022-7.593,16.786-20.882L334.112,19c-4.752,5.378-28.824,26.577-40.543,48.407,0,0-7.288-10.443,19.32-42.4-18.054,14.87-83.625,75.459-91.226,191.732-0.95,6.646,8.554,18.51,8.554,18.51L220,231.691c8.316,17.085,55.355,72.612,115.221,131.935l8.554,26.577v24.916l-7.6-26.577L318.83,360.067v28.95C325.957,409.186,353.751,450,353.751,450V365.525L247.32,249.488s66.52,54.1,85.526,73.56l9.978-10.2c-12.355-8.78-66.045-62.646-70.8-110.1,40.388,85.426,79.111,96.1,107.62,129.325V340.2h24.707v-8.131c28.508-33.221,67.233-43.9,107.619-129.325-4.75,47.459-58.442,101.325-70.8,110.1l9.976,10.2c19.006-19.458,85.526-73.56,85.526-73.56L430.249,365.525V450s27.8-40.815,34.923-60.984v-28.95l-17.343,28.475ZM392,313.083c-17.818-11.865-63.668-39.629-82.672-83.053a314.117,314.117,0,0,0,34.447,34.882s-1.189-30.61,1.186-37.255c4.276,36.781,13.068,52.442,47.039,71.9,33.973-19.458,42.763-35.119,47.039-71.9,2.375,6.645,1.188,37.255,1.188,37.255a314.117,314.117,0,0,0,34.447-34.882C455.668,273.454,409.818,301.218,392,313.083Z"/>
  <path id="HEIMDALL" class="cls-2" d="M18.222,567v-35.1H57.081V567H67.3V492.079H57.081v30.772H18.222V492.079H8.049V567H18.222Zm157.447,0v-9.359h-44.2V532.515H171.5v-8.748H121.4V567h54.271ZM121.4,501.336H174.8v-9.257H121.4v9.257ZM236.373,567V492.079H226.2V567h10.172Zm64.521-60.323q0.407,1.629.915,3.052L320.628,567h9.613l19.277-57.271q0.509-1.627.967-3.281t0.813-3.281V567h9.868V492.079h-14.6L327.342,549.4q-0.457,1.323-.864,2.8t-0.814,3.357q-0.2-1.017-.585-2.365t-1.195-3.789l-18.565-57.323H290.772V567h9.359V503.167Q300.485,505.05,300.894,506.677ZM459.815,508q5.849,7.275,5.849,20.956,0,14.293-5.747,21.591t-16.989,7.3h-17.5V500.726h17.5Q453.965,500.726,459.815,508Zm-16.429,59q15.462,0,24.084-10.147t8.621-28.407q0-17.649-8.316-27.008t-23.982-9.359H415.259V567h28.127Zm84.916,0,22.889-64.189L573.723,567H584.76l-27.924-74.921H545.6L517.774,567H528.3Zm149.817,0v-9.46H640.786V492.079H630.512V567h47.607Zm93.767,0v-9.46H734.552V492.079H724.278V567h47.608Z"/>
  <path id="APPLICATION_DASHBOARD" data-name="APPLICATION DASHBOARD" class="cls-3" d="M10.387,618.273h1.763l3.412-8.587H28.387l3.375,8.587h1.762L22.949,591.5h-1.8Zm5.7-10.012,5.962-15.15h0.075l5.738,15.15H16.087Zm35.1,10.012h1.65V606.348h9.15a9.137,9.137,0,0,0,6.225-1.912A6.857,6.857,0,0,0,70.386,599a8.268,8.268,0,0,0-.787-3.881,6.252,6.252,0,0,0-1.969-2.287,6.724,6.724,0,0,0-2.55-1.069,13.347,13.347,0,0,0-2.494-.263h-11.4v26.775Zm1.65-25.35h9.637a6.86,6.86,0,0,1,3.244.657,5.389,5.389,0,0,1,1.894,1.612,5.452,5.452,0,0,1,.9,1.988,8.537,8.537,0,0,1,.225,1.781,6.829,6.829,0,0,1-.337,2.1,5.411,5.411,0,0,1-1.088,1.912A5.488,5.488,0,0,1,65.3,604.38a7.693,7.693,0,0,1-3.056.543H52.836v-12ZM89.1,618.273h1.65V606.348H99.9a9.136,9.136,0,0,0,6.225-1.912A6.856,6.856,0,0,0,108.3,599a8.269,8.269,0,0,0-.787-3.881,6.258,6.258,0,0,0-1.969-2.287,6.73,6.73,0,0,0-2.55-1.069,13.349,13.349,0,0,0-2.494-.263H89.1v26.775Zm1.65-25.35h9.638a6.854,6.854,0,0,1,3.243.657,5.383,5.383,0,0,1,1.894,1.612,5.452,5.452,0,0,1,.9,1.988,8.537,8.537,0,0,1,.225,1.781,6.828,6.828,0,0,1-.337,2.1,5.41,5.41,0,0,1-1.088,1.912,5.485,5.485,0,0,1-2.006,1.407,7.692,7.692,0,0,1-3.056.543H90.748v-12Zm36.262,25.35h16.838v-1.425H128.66V591.5h-1.65v26.775Zm34.5,0h1.65V591.5h-1.65v26.775Zm21.975-7.893a13.171,13.171,0,0,0,2.494,4.462,11.521,11.521,0,0,0,4.012,2.981,12.815,12.815,0,0,0,5.382,1.088,10.573,10.573,0,0,0,4.162-.825,10.7,10.7,0,0,0,3.431-2.306,12.4,12.4,0,0,0,2.438-3.507,13.158,13.158,0,0,0,1.181-4.425h-1.65a10.715,10.715,0,0,1-2.925,6.694,10.016,10.016,0,0,1-2.981,2.138,8.447,8.447,0,0,1-3.656.806,10.345,10.345,0,0,1-8.175-3.731,11.949,11.949,0,0,1-2.175-3.994,16.219,16.219,0,0,1,0-9.75,11.949,11.949,0,0,1,2.175-3.994,10.815,10.815,0,0,1,11.381-3.244,9.217,9.217,0,0,1,2.756,1.425,8.357,8.357,0,0,1,2.063,2.269,8.018,8.018,0,0,1,1.087,3.019h1.65q0-.075-0.15-0.769a10.022,10.022,0,0,0-.544-1.65,11.175,11.175,0,0,0-1.143-2.044,9.157,9.157,0,0,0-1.932-2.006,10.434,10.434,0,0,0-2.906-1.537,12.105,12.105,0,0,0-4.087-.619,12.83,12.83,0,0,0-5.382,1.087,11.56,11.56,0,0,0-4.012,2.982,13.171,13.171,0,0,0-2.494,4.462A17.939,17.939,0,0,0,183.485,610.38Zm38.813,7.893h1.762l3.413-8.587H240.3l3.375,8.587h1.762L234.86,591.5h-1.8Zm5.7-10.012,5.962-15.15h0.075l5.738,15.15H228Zm38.7-15.338v25.35h1.65v-25.35h9.45V591.5H257.285v1.425H266.7Zm28.687,25.35h1.65V591.5h-1.65v26.775Zm45.525-18.881a13.171,13.171,0,0,0-2.494-4.462,11.609,11.609,0,0,0-3.993-2.982,13.818,13.818,0,0,0-10.744,0,11.573,11.573,0,0,0-4.013,2.982,13.169,13.169,0,0,0-2.493,4.462,17.919,17.919,0,0,0,0,10.988,13.169,13.169,0,0,0,2.493,4.462,11.534,11.534,0,0,0,4.013,2.981,13.806,13.806,0,0,0,10.744,0,11.569,11.569,0,0,0,3.993-2.981,13.171,13.171,0,0,0,2.494-4.462A17.919,17.919,0,0,0,340.91,599.392Zm-22.2.619a11.985,11.985,0,0,1,2.175-3.994,10.341,10.341,0,0,1,8.175-3.731,10.383,10.383,0,0,1,4.669,1.012,10.608,10.608,0,0,1,3.469,2.719,12.02,12.02,0,0,1,2.175,3.994,16.219,16.219,0,0,1,0,9.75,12.02,12.02,0,0,1-2.175,3.994,10.592,10.592,0,0,1-3.469,2.718,10.384,10.384,0,0,1-4.669,1.013,10.349,10.349,0,0,1-8.175-3.731,11.985,11.985,0,0,1-2.175-3.994A16.219,16.219,0,0,1,318.71,600.011Zm42.337,18.262h1.65v-24.75h0.076l17.025,24.75h1.95V591.5H380.1v24.563h-0.075L363.11,591.5h-2.063v26.775Zm67.35,0h8.7a13.748,13.748,0,0,0,5.569-1.031,10.657,10.657,0,0,0,3.881-2.831,11.535,11.535,0,0,0,2.269-4.256,18.5,18.5,0,0,0,.731-5.307,20.993,20.993,0,0,0-.581-4.95,11.442,11.442,0,0,0-2.006-4.275,10.1,10.1,0,0,0-3.806-3,14,14,0,0,0-5.982-1.125H428.4v26.775Zm1.65-1.425V592.923h6.863a20.579,20.579,0,0,1,2.194.132,11.492,11.492,0,0,1,2.437.543,10.028,10.028,0,0,1,2.363,1.182,7.4,7.4,0,0,1,2.024,2.1,11.528,11.528,0,0,1,1.426,3.281,17.65,17.65,0,0,1,.543,4.687,15.2,15.2,0,0,1-.956,5.794,9.89,9.89,0,0,1-2.494,3.675,9.145,9.145,0,0,1-3.431,1.95,12.776,12.776,0,0,1-3.769.581h-7.2Zm35.4,1.425h1.763l3.412-8.587h12.825l3.375,8.587h1.763L478.01,591.5h-1.8Zm5.7-10.012,5.963-15.15h0.075l5.737,15.15H471.147Zm54.225-9.113a9.089,9.089,0,0,0-.938-3.787,7.319,7.319,0,0,0-2.193-2.569,9.347,9.347,0,0,0-3.188-1.462,15.644,15.644,0,0,0-3.919-.469,13.372,13.372,0,0,0-3.187.394,9.314,9.314,0,0,0-2.906,1.237,6.588,6.588,0,0,0-2.1,2.213,6.349,6.349,0,0,0-.807,3.281,5.672,5.672,0,0,0,.788,3.131,6.266,6.266,0,0,0,2.062,1.988,11.508,11.508,0,0,0,2.925,1.218q1.65,0.45,3.338.788,1.725,0.337,3.356.731a13.434,13.434,0,0,1,2.925,1.05,5.785,5.785,0,0,1,2.081,1.725,4.529,4.529,0,0,1,.788,2.756,5.2,5.2,0,0,1-.769,2.925,6.192,6.192,0,0,1-1.912,1.875,7.9,7.9,0,0,1-2.513,1.013,12.035,12.035,0,0,1-2.569.3,16.23,16.23,0,0,1-3.787-.431,8.611,8.611,0,0,1-3.131-1.407,6.728,6.728,0,0,1-2.082-2.493,7.5,7.5,0,0,1-.637-3.732h-1.65a9.583,9.583,0,0,0,.844,4.388,7.97,7.97,0,0,0,2.418,2.944,9.916,9.916,0,0,0,3.6,1.65,18.547,18.547,0,0,0,4.425.506,13.939,13.939,0,0,0,3.207-.394,9.411,9.411,0,0,0,3.037-1.294,7.586,7.586,0,0,0,2.269-2.325,6.473,6.473,0,0,0,.9-3.525,6.142,6.142,0,0,0-.788-3.243,6.3,6.3,0,0,0-2.081-2.1,11.491,11.491,0,0,0-2.925-1.275q-1.63-.47-3.356-0.807-1.687-.337-3.338-0.712a13.567,13.567,0,0,1-2.925-.994,5.721,5.721,0,0,1-2.062-1.631,4.153,4.153,0,0,1-.788-2.625,4.99,4.99,0,0,1,.713-2.756,5.452,5.452,0,0,1,1.819-1.763,7.677,7.677,0,0,1,2.4-.919,12.264,12.264,0,0,1,2.418-.262,12.7,12.7,0,0,1,3.394.431,7.772,7.772,0,0,1,2.681,1.294,6.3,6.3,0,0,1,1.782,2.137,7.185,7.185,0,0,1,.731,3h1.65Zm20.25,19.125h1.65v-13.2h17.1v13.2h1.65V591.5h-1.65v12.15h-17.1V591.5h-1.65v26.775Zm40.874,0h10.725a14.045,14.045,0,0,0,3.825-.487,8.407,8.407,0,0,0,2.944-1.444A6.622,6.622,0,0,0,605.884,614a7.283,7.283,0,0,0,.675-3.225,5.962,5.962,0,0,0-.844-3.318,7.1,7.1,0,0,0-1.912-2.025,6.8,6.8,0,0,0-2.044-.994,4.32,4.32,0,0,0-1.238-.225l-0.075-.075a6.15,6.15,0,0,0,3.769-1.913,5.306,5.306,0,0,0,1.069-1.725,5.689,5.689,0,0,0,.375-2.062,7.764,7.764,0,0,0-.431-2.531,5.792,5.792,0,0,0-1.407-2.232,7.122,7.122,0,0,0-2.587-1.575,11.627,11.627,0,0,0-4.013-.6H586.5v26.775Zm1.65-14.625V592.923h9.075a12.173,12.173,0,0,1,2.569.263,6.282,6.282,0,0,1,2.156.881,4.652,4.652,0,0,1,1.5,1.613,4.921,4.921,0,0,1,.563,2.456,5.118,5.118,0,0,1-1.688,3.994,7.425,7.425,0,0,1-5.1,1.518h-9.075Zm0,13.2V605.073h9.075a15.338,15.338,0,0,1,2.682.244,7.615,7.615,0,0,1,2.475.881,5.289,5.289,0,0,1,1.818,1.744,5.144,5.144,0,0,1,.713,2.831,5.316,5.316,0,0,1-2.044,4.557,9.29,9.29,0,0,1-5.644,1.518h-9.075Zm61.125-17.456a13.171,13.171,0,0,0-2.494-4.462,11.609,11.609,0,0,0-3.993-2.982,13.818,13.818,0,0,0-10.744,0,11.573,11.573,0,0,0-4.013,2.982,13.169,13.169,0,0,0-2.493,4.462,17.919,17.919,0,0,0,0,10.988,13.169,13.169,0,0,0,2.493,4.462,11.534,11.534,0,0,0,4.013,2.981,13.806,13.806,0,0,0,10.744,0,11.569,11.569,0,0,0,3.993-2.981,13.171,13.171,0,0,0,2.494-4.462A17.919,17.919,0,0,0,649.271,599.392Zm-22.2.619a11.985,11.985,0,0,1,2.175-3.994,10.341,10.341,0,0,1,8.175-3.731,10.383,10.383,0,0,1,4.669,1.012,10.608,10.608,0,0,1,3.469,2.719,12.02,12.02,0,0,1,2.175,3.994,16.219,16.219,0,0,1,0,9.75,12.02,12.02,0,0,1-2.175,3.994,10.592,10.592,0,0,1-3.469,2.718,10.384,10.384,0,0,1-4.669,1.013,10.349,10.349,0,0,1-8.175-3.731,11.985,11.985,0,0,1-2.175-3.994A16.219,16.219,0,0,1,627.071,600.011Zm38.85,18.262h1.763l3.412-8.587h12.825l3.375,8.587h1.763L678.484,591.5h-1.8Zm5.7-10.012,5.963-15.15h0.075l5.737,15.15H671.621Zm35.1,10.012h1.65V606.086H717.9a8.467,8.467,0,0,1,3.656.637,4.272,4.272,0,0,1,1.894,1.688,5.72,5.72,0,0,1,.712,2.381q0.112,1.332.113,2.681t0.056,2.607a4.872,4.872,0,0,0,.581,2.193h1.838a2.727,2.727,0,0,1-.469-0.937,7.049,7.049,0,0,1-.244-1.219,12.4,12.4,0,0,1-.075-1.406v-1.538a23.126,23.126,0,0,0-.15-2.625,7.429,7.429,0,0,0-.675-2.4,4.766,4.766,0,0,0-1.593-1.837,6.377,6.377,0,0,0-2.907-.975v-0.075a6.637,6.637,0,0,0,4.219-2.306,6.961,6.961,0,0,0,1.519-4.557,7.265,7.265,0,0,0-.656-3.262,5.568,5.568,0,0,0-1.819-2.119,7.776,7.776,0,0,0-2.7-1.162,14.572,14.572,0,0,0-3.3-.357H706.721v26.775Zm1.65-13.612V592.923H717.9a11,11,0,0,1,2.587.3,6.182,6.182,0,0,1,2.175.975,4.961,4.961,0,0,1,1.5,1.744,5.453,5.453,0,0,1,.563,2.569,6.7,6.7,0,0,1-.525,2.775,5.265,5.265,0,0,1-1.425,1.912,5.781,5.781,0,0,1-2.156,1.107,9.917,9.917,0,0,1-2.719.356h-9.525ZM746.1,618.273h8.7a13.748,13.748,0,0,0,5.569-1.031,10.657,10.657,0,0,0,3.881-2.831,11.52,11.52,0,0,0,2.269-4.256,18.5,18.5,0,0,0,.731-5.307,20.941,20.941,0,0,0-.581-4.95,11.442,11.442,0,0,0-2.006-4.275,10.1,10.1,0,0,0-3.806-3,14,14,0,0,0-5.982-1.125H746.1v26.775Zm1.65-1.425V592.923h6.863a20.579,20.579,0,0,1,2.194.132,11.492,11.492,0,0,1,2.437.543,10.028,10.028,0,0,1,2.363,1.182,7.42,7.42,0,0,1,2.025,2.1,11.555,11.555,0,0,1,1.425,3.281,17.65,17.65,0,0,1,.543,4.687,15.2,15.2,0,0,1-.956,5.794,9.878,9.878,0,0,1-2.494,3.675,9.145,9.145,0,0,1-3.431,1.95,12.771,12.771,0,0,1-3.769.581h-7.2Z"/>
</svg>
