<svg xmlns="http://www.w3.org/2000/svg" width="172" height="65" viewBox="0 0 172 65">
    <defs>
        <filter id="q565j8mp6a">
            <feColorMatrix in="SourceGraphic" values="0 0 0 0 1.000000 0 0 0 0 1.000000 0 0 0 0 1.000000 0 0 0 1.000000 0"/>
        </filter>
        <filter id="c4jzokhq9b">
            <feColorMatrix in="SourceGraphic" values="0 0 0 0 0.141176 0 0 0 0 0.631373 0 0 0 0 0.756863 0 0 0 1.000000 0"/>
        </filter>
    </defs>
    <g fill="none" fill-rule="evenodd">
        <g>
            <g>
                <g>
                    <g transform="translate(-108 -258) translate(0 64) translate(108 194)">
                        <g>
                            <path fill="#fff" fill-rule="nonzero" d="M10.704 43.028c1.365 0 2.57.336 3.616 1.008 1.045.672 1.856 1.616 2.432 2.832.576 1.216.864 2.635.864 4.256 0 1.6-.288 3.003-.864 4.208-.576 1.205-1.387 2.139-2.432 2.8s-2.25.992-3.616.992c-1.301 0-2.416-.288-3.344-.864-.928-.576-1.627-1.408-2.096-2.496v8.32l-.007.134c-.019.171-.075.308-.169.41-.117.128-.283.192-.496.192-.448 0-.672-.245-.672-.736V43.796l.007-.123c.019-.157.075-.287.169-.389.117-.128.283-.192.496-.192.213 0 .379.064.496.192.117.128.176.299.176.512v2.528l.122-.261c.465-.94 1.123-1.669 1.974-2.187.928-.565 2.043-.848 3.344-.848zm53.728.032c.235 0 .416.128.544.384l6.176 13.92.064-.16 6.08-13.664.051-.105c.129-.229.314-.343.557-.343.17 0 .32.059.448.176.128.117.192.272.192.464 0 .064-.021.16-.064.288l-9.184 20.352-.059.102c-.125.188-.298.282-.517.282-.17 0-.315-.053-.432-.16-.117-.107-.176-.245-.176-.416l.064-.256 2.304-5.056-6.72-14.848-.028-.09c-.024-.084-.036-.15-.036-.198 0-.192.075-.352.224-.48.15-.128.32-.192.512-.192zm-26.144-.032c1.365 0 2.57.33 3.616.992 1.045.661 1.856 1.6 2.432 2.816.576 1.216.864 2.624.864 4.224 0 1.621-.288 3.04-.864 4.256-.576 1.216-1.387 2.155-2.432 2.816s-2.25.992-3.616.992c-1.365 0-2.57-.33-3.616-.992-1.045-.661-1.856-1.6-2.432-2.816-.576-1.216-.864-2.635-.864-4.256 0-1.6.288-3.008.864-4.224.576-1.216 1.387-2.155 2.432-2.816s2.25-.992 3.616-.992zm-9.28.064l.121.004c.191.013.327.06.407.14.096.096.144.24.144.432 0 .363-.224.576-.672.64l-.96.096-.287.033c-1.415.19-2.493.755-3.233 1.695-.79 1.003-1.184 2.155-1.184 3.456v8.736l-.007.134c-.019.171-.075.308-.169.41-.117.128-.283.192-.496.192-.213 0-.379-.064-.496-.192-.117-.128-.176-.31-.176-.544V43.828l.005-.118c.034-.412.256-.618.667-.618.192 0 .352.064.48.192s.192.31.192.544v2.304l.119-.225c.938-1.692 2.563-2.62 4.873-2.783l.448-.032h.224zm32.064 0c.17 0 .325.064.464.192s.208.288.208.48-.075.373-.224.544l-5.696 6.656 5.856 6.816.08.104c.096.14.144.286.144.44 0 .192-.064.352-.192.48s-.277.192-.448.192c-.192 0-.373-.096-.544-.288l-5.76-6.752-5.728 6.752-.096.088c-.16.133-.32.2-.48.2-.17 0-.32-.064-.448-.192s-.192-.288-.192-.48.075-.373.224-.544l5.856-6.816-5.664-6.656-.08-.104c-.096-.14-.144-.286-.144-.44 0-.192.064-.352.192-.48s.277-.192.448-.192c.192 0 .373.096.544.288l5.568 6.592 5.568-6.592.086-.088c.145-.133.298-.2.458-.2zM38.288 44.34c-1.707 0-3.045.592-4.016 1.776-.97 1.184-1.456 2.832-1.456 4.944 0 2.176.475 3.845 1.424 5.008.95 1.163 2.288 1.744 4.016 1.744 1.77 0 3.13-.581 4.08-1.744.95-1.163 1.424-2.832 1.424-5.008 0-2.112-.485-3.76-1.456-4.944-.97-1.184-2.31-1.776-4.016-1.776zm-27.584 0c-1.75 0-3.093.581-4.032 1.744-.939 1.163-1.408 2.821-1.408 4.976s.47 3.819 1.408 4.992c.939 1.173 2.272 1.76 4 1.76 1.728 0 3.072-.581 4.032-1.744s1.44-2.81 1.44-4.944c0-2.133-.48-3.797-1.44-4.992-.96-1.195-2.293-1.792-4-1.792zM88.834 0c.53 0 .986.177 1.37.531.353.315.55.735.589 1.26l.007.201v17.491l10.056-9.069c.278-.236.573-.372.884-.406l.157-.008c.473 0 .886.182 1.24.545.37.364.554.77.554 1.221 0 .356-.135.685-.407.985l-.124.127-8.04 7.086 8.793 9.114c.325.335.487.713.487 1.134 0 .465-.192.88-.576 1.243-.37.363-.797.545-1.285.545-.459 0-.86-.16-1.203-.482l-.126-.129L90.8 20.488v9.498c0 .55-.163 1.003-.489 1.355l-.13.128c-.398.354-.869.531-1.414.531-.545 0-1.01-.17-1.392-.51-.34-.314-.53-.745-.568-1.293l-.007-.211V1.992c0-.62.199-1.107.597-1.46.412-.355.891-.532 1.436-.532zm-8 9.6c.53 0 .986.184 1.37.55.353.327.55.763.589 1.307l.007.209V29.91c0 .643-.206 1.156-.619 1.538-.398.367-.869.551-1.414.551-.545 0-1.01-.176-1.392-.528-.34-.326-.53-.774-.568-1.342l-.007-.219V11.666c0-.643.199-1.148.597-1.515.412-.367.891-.551 1.436-.551zM75.458 0v.003l.076.003C76.245.074 76.8.672 76.8 1.4c0 .76-.607 1.38-1.362 1.4h-2.076c-.62 0-1.103.058-1.448.175-.346.102-.656.38-.93.76-.26.365-.353 1.057-.454 1.757-.078.617-.12 1.435-.129 2.454l-.001.347-.001 1.306L74 9.6c.663 0 1.2.537 1.2 1.2 0 .663-.537 1.2-1.2 1.2l-3.6-.001v17.987c0 .55-.163 1.003-.489 1.355l-.13.128c-.398.354-.869.531-1.414.531-.545 0-1.01-.17-1.392-.51-.34-.314-.53-.745-.568-1.293l-.007-.211V11.999L63.2 12c-.663 0-1.2-.537-1.2-1.2 0-.663.537-1.2 1.2-1.2l3.199-.001.001-2.378c0-2.611.548-4.464 1.643-5.558C69.074.62 70.476.067 72.247.006L72.584 0h2.875zM51.833 9.6c2.084 0 4.02.537 5.465 1.512 1.145.774 2.075 1.965 2.451 3.14.216.674.249.923.25 1.902.002.61-.014 1.021-.048 1.211-.338 1.926-1.143 3.26-2.54 4.209-1.124.764-2.535 1.21-4.382 1.387-.929.09-2.629.08-3.73-.018-.935-.084-2.082-.232-2.572-.331-.41-.083-1.813-.321-1.824-.31-.005.005-.072.432-.149.948-.122.825-.14 1.03-.142 1.689-.002.67.007.787.086 1.096.256.993.819 1.657 1.84 2.171 1.005.505 2.058.724 3.65.758.704.015 1.065.004 1.506-.043 1.069-.115 1.556-.242 2.975-.772.354-.132.715-.253.802-.267.188-.032.537.033.741.139.368.19.677.696.675 1.105-.002.479-.161.769-.627 1.146-1.115.901-2.537 1.454-4.236 1.645-.605.068-1.988.078-2.656.02-1.881-.167-3.187-.494-4.38-1.097-.932-.471-1.642-1.056-2.173-1.787-.13-.18-.24-.332-.246-.337-.005-.006-.091.098-.192.23-.447.586-1.13 1.215-1.796 1.655-.963.637-2.345 1.122-3.743 1.315-.417.058-1.801.105-2.156.074-2.451-.215-4.324-.966-5.686-2.282-1.386-1.338-1.98-3.083-1.746-5.122.27-2.347 1.367-4.005 3.29-4.972 1.483-.745 2.962-1.028 5.371-1.029 1.711 0 3.145.142 5.333.529.54.095 1.009.174 1.04.174.046 0 .082-.175.181-.875.18-1.266.212-1.702.163-2.21-.057-.59-.131-.87-.351-1.328-.568-1.18-1.915-1.902-4.078-2.185-.619-.082-2.046-.093-2.666-.022-1.038.12-1.618.272-2.91.764-.756.288-.76.289-1.061.27-.519-.03-.872-.269-1.1-.74-.093-.195-.11-.275-.11-.537 0-.392.101-.6.452-.934.786-.748 2.108-1.384 3.443-1.657.855-.175 1.275-.212 2.402-.21 1.165.003 1.91.068 2.945.264 1.723.326 3.03.9 4.016 1.762.293.256.734.76.923 1.054.058.09.118.163.133.163.015 0 .11-.108.212-.24 1.493-1.934 4.008-3.029 6.955-3.027zm-25.045 0c.498 0 .888.18 1.168.538.296.358.444.776.444 1.254 0 .448-.132.836-.397 1.165-.265.313-.647.47-1.145.47-2.102 0-3.538.523-4.706 1.568-1.123 1.018-1.723 2.37-1.752 4.055V29.91c0 .643-.206 1.156-.619 1.538-.398.367-.869.551-1.414.551-.545 0-1.01-.176-1.392-.528-.369-.353-.56-.848-.574-1.484L16.4 11.666c0-.643.199-1.148.597-1.515.412-.367.891-.551 1.436-.551.53 0 .987.184 1.37.55.382.353.58.833.596 1.44l.001 2.889.09-.29c.413-1.259 1.162-2.318 2.246-3.178 1.184-.94 2.401-1.411 4.052-1.411zM6.17 3.2c.49 0 .915.159 1.273.477.371.33.557.774.557 1.33L7.999 9.6 12.4 9.6c.621 0 1.132.472 1.194 1.077l.006.123c0 .621-.472 1.132-1.077 1.194L12.4 12l-4.401-.001L8 23.707l.001.347c.008 1.019.05 1.837.129 2.454.1.7.194 1.392.454 1.757.274.38.584.658.93.76.296.1.693.157 1.19.171l.258.004h2.076c.756.02 1.362.64 1.362 1.4 0 .682-.488 1.25-1.134 1.375l-.131.019-.076.003V32h-2.875l-.337-.006c-1.771-.061-3.173-.614-4.204-1.657-1.045-1.044-1.592-2.78-1.64-5.207L4 24.78l-.001-12.78L1.2 12c-.621 0-1.132-.472-1.194-1.077L0 10.8c0-.621.472-1.132 1.077-1.194L1.2 9.6l2.882-.001.318-4.591c0-.583.172-1.033.517-1.351.345-.305.763-.457 1.253-.457zm30.06 18.316c-1.489.085-2.096.218-2.99.656-.458.224-.774.467-1.024.787-.359.46-.576.917-.727 1.533-.11.448-.12 1.621-.019 2 .172.636.376.997.835 1.474.628.654 1.455 1.09 2.482 1.307.525.112.51.11 1.389.097.637-.01.876-.028 1.137-.087 1.108-.252 2.095-.818 2.812-1.614.653-.726 1.19-1.814 1.485-3.012.166-.676.443-2.557.381-2.595-.024-.016-.17-.04-.324-.054-.155-.015-.595-.068-.978-.118-2.278-.302-3.675-.42-4.458-.374zm13.891-9.023c-.81.152-1.496.43-2.101.85-1.117.778-1.888 1.95-2.317 3.525-.169.618-.214.855-.364 1.921l-.139.983.186.021c.56.064 1.826.222 2.56.32.463.06 1.03.126 1.262.145.668.054 1.866.049 2.521-.01.923-.084 1.49-.232 2.188-.569.58-.28.916-.567 1.235-1.05.47-.713.653-1.387.648-2.389-.003-.714-.062-1.011-.302-1.524-.535-1.145-1.791-1.965-3.44-2.245-.411-.07-1.515-.057-1.937.022zM80.821 0c.71 0 1.285.196 1.723.59.437.38.656.886.656 1.52 0 .62-.219 1.127-.656 1.52-.438.38-1.02.57-1.744.57-.725 0-1.306-.19-1.744-.57-.437-.393-.656-.9-.656-1.52 0-.621.219-1.128.656-1.52.452-.394 1.04-.59 1.765-.59z" transform="translate(67.5)"/>
                        </g>
                    </g>
                    <g transform="translate(-108 -258) translate(0 64) translate(108 194)">
                        <g>
                            <path fill="#24A1C1" fill-rule="nonzero" d="M27.75 0c2.517 0 4.754 1.777 4.754 3.965 0 2.189-2.13 3.966-4.754 3.966-.3 0-.692-.05-1.176-.148-.375-.076-.766-.014-1.099.176L8.43 17.66c-.38.217-.513.7-.297 1.082.071.125.175.228.301.299l18.478 10.381c.48.27 1.065.271 1.546.004l18.579-10.335c.382-.213.52-.696.307-1.078-.07-.128-.175-.233-.301-.305l-5.797-3.293c-.48-.273-1.068-.276-1.55-.007l-6.12 3.396c-.155.086-.256.241-.275.414l-.003.059c0 2.188-2.13 3.965-4.755 3.965-2.624 0-4.754-1.777-4.754-3.965 0-2.189 2.13-3.966 4.754-3.966.098 0 .21.006.336.016l.2.02.223.028c.338.046.683-.019.982-.185l9.05-5.023c.693-.384 1.53-.397 2.231-.04l.095.052 12.637 7.18c1.585.9 1.603 3.163.067 4.098l-.085.05-8.454 4.702c-.383.213-.52.696-.308 1.078.075.135.188.245.324.317l8.373 4.408c1.662.874 1.702 3.242.07 4.172L28.856 49.688c-.73.416-1.626.416-2.356 0L1.215 35.244c-1.634-.933-1.589-3.306.079-4.176l8.464-4.42c.388-.202.539-.68.337-1.069-.072-.137-.181-.25-.315-.325l-8.566-4.812c-1.585-.89-1.62-3.146-.096-4.093l.084-.05L22.241 4.326c.333-.19.585-.493.712-.853l.027-.084C23.718 1.188 25.399 0 27.75 0zm11.74 29.21L29.1 35.188l-.095.052c-.707.365-1.551.351-2.248-.042l-10.356-5.843c-.466-.262-1.032-.271-1.506-.023l-5.97 3.124c-.387.202-.537.681-.335 1.07.07.135.177.246.309.322L27.138 44.29c.485.278 1.08.279 1.566 0l18.397-10.517c.38-.217.511-.701.295-1.082-.075-.131-.185-.239-.319-.31l-6.065-3.2c-.479-.252-1.053-.242-1.523.028z" transform="translate(0 7)"/>
                        </g>
                    </g>
                </g>
            </g>
        </g>
    </g>
</svg>
